<?xml version="1.0" standalone="no"?>
<!DOCTYPE svg PUBLIC "-//W3C//DTD SVG 20010904//EN"
 "http://www.w3.org/TR/2001/REC-SVG-20010904/DTD/svg10.dtd">
<svg version="1.0" xmlns="http://www.w3.org/2000/svg"
 width="467.000000pt" height="198.000000pt" viewBox="0 0 467.000000 198.000000"
 preserveAspectRatio="xMidYMid meet">

<g transform="translate(0.000000,198.000000) scale(0.100000,-0.100000)"
fill="#000000" stroke="none">
<path d="M0 990 l0 -990 2335 0 2335 0 0 990 0 990 -2335 0 -2335 0 0 -990z
m781 719 c21 -7 63 -34 94 -62 89 -79 115 -141 115 -274 l0 -93 -130 0 -130 0
0 74 c0 98 -8 106 -108 106 -42 0 -84 -5 -92 -10 -13 -8 -15 -70 -18 -441 -2
-315 0 -435 9 -445 15 -18 179 -20 197 -2 8 8 12 53 12 135 l0 122 -72 3 -73
3 0 125 0 125 200 0 200 0 0 -280 0 -280 -27 -51 c-34 -65 -115 -138 -175
-158 -32 -11 -83 -16 -163 -16 -154 0 -196 14 -275 94 -97 97 -95 85 -95 623
0 298 4 469 11 498 15 59 102 155 172 189 47 23 64 25 181 26 71 0 146 -5 167
-11z m877 -24 c65 -35 107 -81 141 -155 l26 -55 0 -470 c0 -438 -1 -473 -19
-519 -24 -63 -86 -130 -151 -164 -48 -26 -57 -27 -200 -27 -147 0 -151 1 -203
29 -60 33 -101 76 -134 139 -23 42 -23 46 -26 516 -3 564 -5 549 92 647 83 83
119 94 291 91 123 -2 133 -4 183 -32z m532 -182 l0 -218 133 215 133 215 148
3 c131 2 148 1 142 -13 -3 -9 -45 -80 -92 -158 -48 -78 -120 -197 -161 -265
l-75 -123 17 -47 c10 -26 44 -114 76 -197 32 -82 88 -229 124 -325 37 -96 70
-179 74 -185 9 -12 31 -87 31 -104 0 -8 -41 -11 -134 -11 l-133 0 -18 48 c-21
56 -88 230 -152 397 -26 66 -50 124 -54 128 -4 5 -19 -11 -33 -35 l-26 -45 0
-246 0 -247 -135 0 -135 0 0 715 0 715 135 0 135 0 0 -217z m918 -357 c1 -400
5 -573 13 -583 16 -18 182 -18 198 0 8 10 12 183 13 583 l3 569 125 0 125 0 0
-600 0 -600 -25 -50 c-34 -69 -99 -129 -168 -155 -50 -19 -73 -21 -187 -18
-118 3 -135 5 -187 31 -66 32 -110 83 -144 165 l-24 57 0 581 c0 319 3 584 7
588 4 3 61 5 127 4 l121 -3 3 -569z m842 -11 l0 -585 233 -2 232 -3 0 -125 0
-125 -362 -3 -363 -2 0 715 0 715 130 0 130 0 0 -585z"/>
<path d="M1362 1448 c-17 -17 -17 -869 0 -886 19 -19 173 -16 192 4 14 13 16
67 16 432 0 362 -2 421 -16 440 -14 20 -24 22 -98 22 -50 0 -87 -5 -94 -12z"/>
</g>
</svg>
